<mxfile host="Electron" modified="2025-09-01T18:20:07.706Z" agent="Mozilla/5.0 (Windows NT 10.0; Win64; x64) AppleWebKit/537.36 (KHTML, like Gecko) draw.io/24.1.0 Chrome/120.0.6099.109 Electron/28.1.0 Safari/537.36" etag="Bv4Bq9SAWA-L7gWnLG_m" version="24.1.0" type="device">
  <diagram name="PÃ¡gina-1" id="fDJTiXIFMiUADNPkLme-">
    <mxGraphModel dx="2185" dy="1310" grid="1" gridSize="10" guides="1" tooltips="1" connect="1" arrows="1" fold="1" page="1" pageScale="1" pageWidth="827" pageHeight="1169" math="0" shadow="0">
      <root>
        <mxCell id="0" />
        <mxCell id="1" parent="0" />
        <mxCell id="kOvkSLo-NlAXBfO6VZ-2-73" style="edgeStyle=orthogonalEdgeStyle;rounded=0;orthogonalLoop=1;jettySize=auto;html=1;exitX=1;exitY=0.5;exitDx=0;exitDy=0;" edge="1" parent="1" source="kOvkSLo-NlAXBfO6VZ-2-66" target="kOvkSLo-NlAXBfO6VZ-2-12">
          <mxGeometry relative="1" as="geometry" />
        </mxCell>
        <mxCell id="kOvkSLo-NlAXBfO6VZ-2-66" value="" style="rounded=0;whiteSpace=wrap;html=1;fillColor=none;" vertex="1" parent="1">
          <mxGeometry x="605" y="720" width="240" height="730" as="geometry" />
        </mxCell>
        <mxCell id="kOvkSLo-NlAXBfO6VZ-2-2" value="" style="outlineConnect=0;dashed=0;verticalLabelPosition=bottom;verticalAlign=top;align=center;html=1;shape=mxgraph.aws3.event_time_based;fillColor=#759C3E;gradientColor=none;" vertex="1" parent="1">
          <mxGeometry x="314" y="215" width="63" height="82.5" as="geometry" />
        </mxCell>
        <mxCell id="kOvkSLo-NlAXBfO6VZ-2-5" style="edgeStyle=orthogonalEdgeStyle;rounded=0;orthogonalLoop=1;jettySize=auto;html=1;" edge="1" parent="1" source="kOvkSLo-NlAXBfO6VZ-2-3" target="kOvkSLo-NlAXBfO6VZ-2-4">
          <mxGeometry relative="1" as="geometry" />
        </mxCell>
        <mxCell id="kOvkSLo-NlAXBfO6VZ-2-3" value="" style="sketch=0;pointerEvents=1;shadow=0;dashed=0;html=1;strokeColor=none;fillColor=#505050;labelPosition=center;verticalLabelPosition=bottom;verticalAlign=top;outlineConnect=0;align=center;shape=mxgraph.office.concepts.application_windows;" vertex="1" parent="1">
          <mxGeometry x="334" y="265" width="59" height="47" as="geometry" />
        </mxCell>
        <mxCell id="kOvkSLo-NlAXBfO6VZ-2-4" value="" style="shadow=0;dashed=0;html=1;strokeColor=none;fillColor=#4495D1;labelPosition=center;verticalLabelPosition=bottom;verticalAlign=top;align=center;outlineConnect=0;shape=mxgraph.veeam.script;" vertex="1" parent="1">
          <mxGeometry x="461" y="265" width="44.8" height="44.8" as="geometry" />
        </mxCell>
        <mxCell id="kOvkSLo-NlAXBfO6VZ-2-6" value="News" style="html=1;whiteSpace=wrap;strokeColor=none;fillColor=#0079D6;labelPosition=center;verticalLabelPosition=middle;verticalAlign=top;align=center;fontSize=12;outlineConnect=0;spacingTop=-6;fontColor=#FFFFFF;sketch=0;shape=mxgraph.sitemap.news;" vertex="1" parent="1">
          <mxGeometry x="535.15" y="210" width="80" height="70" as="geometry" />
        </mxCell>
        <mxCell id="kOvkSLo-NlAXBfO6VZ-2-8" value="" style="shape=image;verticalLabelPosition=bottom;labelBackgroundColor=default;verticalAlign=top;aspect=fixed;imageAspect=0;image=data:image/png,iVBORw0KGgoAAAANSUhEUgAAAbAAAAB1CAMAAAAYwkSrAAAAeFBMVEX///8AAADo6Oj19fWZmZm2trby8vIyMjLZ2dnb29tWVlakpKRFRUX6+vqtra10dHQfHx9MTEySkpJ6enoMDAzm5ubJycnR0dGAgIAsLCzDw8MlJSWKiopZWVm8vLw6OjphYWFpaWkVFRVJSUmVlZWfn583Nzc/Pz8285AFAAASqElEQVR4nO1daZvqLAwdrda1dbfWvXod//8/fMcC7QkESr2z3Hnt+TLPWLrAgSQkAd7eamBw7M4X2TlbzI/bVZ0bG3w/2tvFroXozZOf/qYGViSTacvE6db+6Q9rwKF/ZtjKsZuHP/1xDXQEGxtdOWXdn/6+BhTJzsXXBw7NIPuXcKPs9IbZ5HDXFNr6pz+yQQHQXr0OEDOIUa+NPn6J1vHmcJou0/u5020MyJ9BMCs4WRgctEG37ePZkgy6y/nYSMpvRzRU7b9hWz90myObwXd/8KvjIJv+blVS/auLstakmad9JzpKGgb2MuHdydgy/r7PfXn0waKwYe3mq9UY/d+IVLS4Y4ysDoSbabbvjDqb84VStv2+T35p7EVzz60Fgj2wku5RzyW3IVzrfP3HNnhbicY+WwvEMJDOplXSBjoXX/eZDRQWQsrZzLw1mIezPlsE5mn7r/vOBgIrp8HRzkAY2pVcv5h3uwyXBp+BP3k7jyPuWtAp6WrtXVZgVBDLD8IGn4VImOts6OSYlnQdqpwZC1mw55jLNfh7iDnYjmll9G1cPNz0yvbYfP5HNigxt9gK4QSk4c3rUcr0aGIwXwlhLegO+giDYwtPP6HyIF8//SMbKER9EWXWTI4j+KFm/hGvlQy8NB6PL8JgI9XUjP4MEctprUSOG/c4T4Rhu90Ow8ZksWJd8kJUmIcpf9xs2FEUSbOyZngsasf77H36MT4vu+tkvg3YOcavRIBwV6ui4AB9gDjbHZU/D/mG74/zYcRNuGJxYy2f4nrfa2no7f8nszmaJ3NyMbaCgoxbd0+eBC6MoJSGvCoqzccFM/zkJe8arWyh7On/Ir6m5TC5zIE2lDM6/OBEH8QRxpvyEQrMVsfoMrL9PUNjq8xCV47f7+VaazWaOMq6CDvqTWMSNuRN+W5Kb+wd+U/0Gh7RHxddLVfCwi+Bnke9dEyQHITF5ZXsYiGMHbxE70noLivxqz22ViIZV/D1gcWvNj9Coz4OD4SdsG7x+7n/tuMJWzLmRkj1XgFqSYoZ3Lm6Njf+aRpOvzkfy6zi3d4BrYRt1a+7hzibehMWgwIdbreQM0DsA6HEdpWVybz4av3qWXhq1sYu5G2EFdZjlg8MX8ISNFNyxbWFOPS4lKBy/FbVheaIOPFrzUXd5HjgbC1tISxSabvSBPMjrH3mnoYG41mp060XYYwytOO3WosZVxmr2WEhTD1EeZx8CAvm8CycfIULuDAX4ll2K7ddz1bFjt+5zqnN1sVqdvCEKQVWdFoPwtCUH2oeiD4MlTRv10T843Twc5Pl8/7WXW/j+YLLf/yVKy7mTEVarYutOEtYIDVR6TusJCwBSnpMVyd0JgVhLh9uaaYWN3ZLgoPBxnRV/ULrPjwZ1cxhMztYwqSfcFjWv4IwsghizMo5krS4CCRhjpoM6OqXj8GlD6BwpFOWuZrm38QWPn+/rK4KR5gaYCDXnIRFI9q2ltAYhmMumfjjqMmMPLOVcnZ7oM/5fp9xj/OeN5TzFvXOESZdUph04SJs+97SMeHfttZnHEN7RWJacmb5/i0t5uoB/yQGpP1H5D8WHGEzk2I7YSve9La8TqPB4ZrSeoBXjd1P/CeBIiJ8W8GkdccrZIYwuUiFRCsthF3WxJTvggLd6f5eeR8x/eyGOHXXuNzXK1KyYqIQro9xZz46bj0DaVGyPY7mH5bptobv6+OmbqcT+2wOFIFf6PDxP6Y08eKdIUyOAvI2C2EtTKd/tMEIHVN8HVGVWe3wiCx4cafrUKlYDO31faYwFCyuRrPy89JsXWVThscDbJiQnrtMZ1idireMhUJfZ8VNl+uxIpUBLeFHD0/gf97sYAgTEnFMitkIK3CXA4q4fm2ZA4XSu9j6IDHprfn8EiT88q7eiY94PCDJdLPz3nENx/bc8PHtNsb39uHyo8d2tfnhKXZ2C8jpnD7+DzA0wTYOQ9gS/5GoIGx6Kz9rkJW/W9Lsy9TuqYUxEiGq8hJGZJmumsBQwvjNYC7WR0e3C3fDUt/ohxIWMgr96hCMqICF9r0Zv2gwCRvQegu4CdNWqK9hemQz8VWRHtvJiV6qzl8kQlFJEkJY27RkZWl+kCW28q2UVggJG6y4/bdcDhgUR0KBYGzsxMlTkzBp1NNiLsLOZhdCY9DSJEq9nrmLJMHAY26FHTuVAhQIuyR8S+bXOPNjZC3e0iwlJOxoe4vVYIEyaoaTVdTcJEw2Ni1mJ2zM9p9objxXh+pd3FIx/Oqrh7+JqLzE+I2VbgVMJ5AlBKuAjlkgTFeRJaYWXYn9WpGDwRZummoSJpr6RIvZCEuthnkbLFTexFfNYjLext2s/tjeAIiweaToN12RNuiM8e5YALRDv6psDoufCQRDYSu9Ye9ihqZJmGhHLSvXNnF2TWcwqHJgCqq1YqlxhUyGvXY6xfmL7Jf+hGmviKtvKPuYH2G8WMdqlnIG1QFjdvwlYa7pJLXLGBM/kJaHEXlEI+LdKykbG/ld/FSDMJJCoblOLofFfj7UXOrlePAkjM1KxwYqGxIZmZo3mYSJWU2PFvt7wlo7c0aipon678R94nhDCWxlqTE4wnrnOEnW+6uublArEW7SkRh9YX9ONh0s/KwmYdf5ut9PFtW5oSEUOcPv6PU2dYlJmLCQlrTY84RB25gmfiYu6EMMBZyncxAbR4hfk7Bz4dsY6IlK5dScCMQ59DGaDaYqrhNWyH4teYxZvohvQlMA00HNkWkSxqbHPE/YBs0e3Ysv365rsQxu8czUwMZJsB4lSG/VprhFe0Y4+DRrBCW1MiM0wpAX6q0xPxlG0pIIHzQ7DCePSdiWK/k8YQvqOtJsvgU2cQH0c3gmQ6HAEu2sEWaY1nQEqOp2jOcAoO8vpaFCCaNOaqITDKsL76RTG9QIhoCxejqovS4Ig1hyHcKIid8jJpkMK2uK6gnC0IUnTDKNMNPYJO0ptVgAHg5mPgH1kN9FCEs1LY3XDG2Ecp9+HHmmfptJmJzTUGqlfiw3YK5F2Md0sHRq3onZJ+SCtqVABh/lKRLRUcsRxtjVxNEq5wLgLU8Z87RdCkzpHCeNq09KcRDrHa8NJoeuqVBc60Qzzl/hSqV6pejASqnWJOwtGhWSmUgaLpZDOp/nGjJT9RDC2IAaxjJkTWDUsT0lK68LPpGwVJe6+ALdoWMzOR5As+OsXWMIkxYU4QKca8LTW5cwkIukJeR65xFzJ19RC5Ad0+iwfCeKXjEEoW+z8z+wO0S3QMLOeukAzAfd2YH5Q/p9IcoLTZYzhCVcS0EbLh8doj5hRRMSciIhl6jVi0a3XyIUuvcvbXwb35QC2JPzLwB3+6XLAewnIeOQMHNMYm4fvYK2s2nyO3osl9Mhpo5L2sW2YIfNBk8RJuNWtF4Z06IoSmyOUwoUMHLOj4TZLBcokjeo5uVwQih5JMycHIMppBGWOe/D79AELUeYlH+6lYQxh4Xo0vUIkwKHEib6LLVESDjMK5kCtZ5U4UiYzR8JnTB3aHHrEmwQQ1+POFOAhKWEYTiRi/ehsKZmB0eYNGCMaHAA7lyhej6BMDE2aByTZMP6KDHirZfVAMKsKxqzskxuktfwP0oGniQMO//hz1xHB+1Eeieb+Stnbqb66GvLfz6BMNGptbQNHDBs3FUD8SeZ8bCdTazOtTIejvryu0SLwC81CGOWhNlBnssSptySjOjvkuzoTyBMiOulI8JRvSglwhmVkvlAmDWL56aV+S7C6ohezSjhV6+oEctEsUJ0NDkJEwK0ijBhYGhNSlb9OtaPSrBTLh+RCDPbfKO6OiLxbwibGE9zgQgIy/ow+aYpJ45WoBGH9sxCSWwVYcK0TrUmzfCDqzaJC0jGjPoiH6MDJHxuW9bp+cIYfYowcxW6GyhjLISpnzn/DE2LyvjeW+zY7GclXrX30K5eEXTG0Dafl2iTqlAkdzVB80+vYyfuf2ElkhwjD9zhXtsaZzWl3/GNhcKeiSUDo1WEZflvhn1DwoU9/SoBTXEqhiMSZpl9G3m2MP8xExdYPENYYFkSZgc82bqLQGFA8d5XXOhzGVEtM0BbsoIwOZk2JvtU/TtWuWjbv5RCHAmzWB2GczaAma7fLj3PEFbP5NCax75PRyFobLmgQMs7TO7aNNBUQZjs02YonIbYz1bDQ7MTRvwF1oVMVIlo7aziFgPPEGY9QNSO8mbHTjilarAs9zrC0FZe/GikHbhYQZgcSeYI0BZ+HSyGnqYOYNEsIYw1Z5nZHohXVn1HJcQPTxBmLC31QKmEXXtNla9bjizbn8O7N48m3YJMEWOkgjARD5sxj8/oJ7MrMFd6Z4XQDR16TNoSkbrSn4JOMWaIrYYFZkK5P0EYzotmEztQsZSf7yAswvSdE79IGg8YaHVwJdE48ZmHSbXPZdqEeuKzscbZ3JMPjQtNVhpqkF5XIxB7gKkK4KrcxKc+YRG6HlxeHAxxlh5VB2Ga6/rA24uJsZY/R1dJHDdhsgXYR5u6+RSXsjnszozrZNGiPgkeU6FK03sLpokk1hlgIsj1CcM3nNkmVcigZOFRdRCGRm+ODd8f8JAciXzEeBAmX3HgP5jbFyydxN3uaH9g1x0Q3k2vBRzjrq+2LtuamNzUoM3gSu9pHYZro9zrPEj6gWr7yu33elADy/F6gZaMLpezeBAmn23bk6JiUYIOKsI4N9MhTlbt/nahn0QNZjM1dsodYlYj0keUFVCbMCK3LPWWIOveVNM7CBMaIgtGMIKuvImP+nusmr+aMGmT2efFtXxuGu0Wv+CUcZSTIKlmx1z33fX2uL9SMXJWpWsT5sxh04AuAXW/g7As//Gjwdvo+5mY+mYF7QprMSsJU5V1CAbnqbUES70r1XDkEqpD9+Ik8bLCBqhNGD6mKjZLtqHqm79phImulkuL5GovFqCZiqdDVBGmEihcbgxvqXgxKu9PmFYhD0dE2cXqEubOw9aBEkY2ZCVhslwX+l2KfokuiPY76eUVhKlFYK4Nbt98Q1TMvivehFW4xRhY1of5EIaTK35jDAT2nZ1op0qRqMJLZKvkYjP6PoQOl5pP3E1YX/WAqvjkwLrcuASXRoArMF0BXkaRVIwxFOE1CcOJuc+BXGgdiW5S6Zo6FDqJHGSU74dIps1GZrOTsKIXe6xOYeYNBBk7jcMA5sC6s+mS7eZthz89JcK3JmEo4X3O48KZjYiYOggTbjrMskpwrjpK/uDmY6ZgcxAGpxB4fPVb1LEvKjcdIBJkF4Fowd/MHYKQv9G69fqejot6hGFmqVc6GPFP5xV1ECYFAzIRxbxwGXMzKRthcVgujss8dzgMbqZf44HpxBry1jZW2TK7qdu4fmC14Xy0C30w1yMMtaPFW6ABRUOunapdU1RmcJuc73jXsGhik7BZKZjP/ocURf2N3uTpIXYYLPpOOFGyQC/aclx1cEs7PtDueZ+bsndw6SnszCGTpepimju/JmlZ2m/D2+2uuKOXZ+K1yx92WqhSZgfqQsvQBxtLkkDLQliJuvtRDrad7Hrqpen7/bCJE3eIUSfsUaOkuxmePm6f7f02+/q4YXF9T9PedXJb8/yGJcyLQXkx0Ap7nmJCbom0H/RxkuWVfTcejVnbj7RtDsUBwKBaI02s+Z3A+CwYwv7vkGOEcUQUPpMLP5cAgxKGLVmQ1Zp57efwPF6QMKnfuAm5TOmwhNEhDHyBtgpBh1j8yJ+IFyRMeUZYZ/pqv7DsXrcFXsYoMEtHde/29ftfvyJh0rAfV5csgbvvTan5KKNfaVa17eOn4BUJU8E2f+uAWP26+Sgmo/qOg1+FlyRM+ZZ9N7xFT7B5+KWw6r/Y1ii/5RUJU0OMO9LeRB/M9qlpPootoy/fdXrDaxKmvMvVK0iqD7kXswQfl+en4DUJKyLa9ypJhn5lPvFU+Hm+7eyGFyWsSHGwnP4rsdbOwmHgecTbp+FVCQsL98QfqyLDY3u5o41yiMhCrbO2/wqvStjbqpgHvx9ZTRaSRKCK5cTfZNO/vTBhb4PS13sfGaMsnOM+jVZN58jJ/iK8LmFvbQwLTWIgpT3CLL6e42xUwerlO1wcEi9MmBEXOU32t9FcDyg63LkqQ6o6T+jz8MqE+Rx/vXcMHiVU/fbv/SQM/nQUbt84sP8VoE+Xg8vdqE5MmL1gu/0g1u5DsK0jrDgU2HYwToOvQnJwJQjeWZMjiAsb0/OMtQafiFWscbbbwNH1Q2Nn+rBTGph2E7LBlyI5jhbD9JJeJ7fjQ8iRlZ2TuIjEBOtRBlea8fXPgKxMfOiqWTY5aAfV2Q6JbfAjqFzu8dvOfv3fg6yKMGDGnhv8OLb8cc4fGPMu4wY/jfWZW2Iy+32Hzb8O2l06t74c4kYY/uv4MPo3k/N5so/rnC3e4Hn8B8Tn8JP8b6YgAAAAAElFTkSuQmCC;" vertex="1" parent="1">
          <mxGeometry x="520.38" y="325" width="110.77" height="30" as="geometry" />
        </mxCell>
        <mxCell id="kOvkSLo-NlAXBfO6VZ-2-12" value="" style="sketch=0;outlineConnect=0;fontColor=#232F3E;gradientColor=none;fillColor=#DD344C;strokeColor=none;dashed=0;verticalLabelPosition=bottom;verticalAlign=top;align=center;html=1;fontSize=12;fontStyle=0;aspect=fixed;shape=mxgraph.aws4.email;" vertex="1" parent="1">
          <mxGeometry x="935" y="1050" width="78" height="69" as="geometry" />
        </mxCell>
        <mxCell id="kOvkSLo-NlAXBfO6VZ-2-23" value="Daily Routine = 08:00 am" style="text;html=1;align=center;verticalAlign=middle;resizable=0;points=[];autosize=1;strokeColor=none;fillColor=none;" vertex="1" parent="1">
          <mxGeometry x="283.5" y="325" width="160" height="30" as="geometry" />
        </mxCell>
        <mxCell id="kOvkSLo-NlAXBfO6VZ-2-26" value="schedule" style="sketch=0;points=[[0,0,0],[0.25,0,0],[0.5,0,0],[0.75,0,0],[1,0,0],[0,1,0],[0.25,1,0],[0.5,1,0],[0.75,1,0],[1,1,0],[0,0.25,0],[0,0.5,0],[0,0.75,0],[1,0.25,0],[1,0.5,0],[1,0.75,0]];outlineConnect=0;fontColor=#232F3E;fillColor=#E7157B;strokeColor=#ffffff;dashed=0;verticalLabelPosition=bottom;verticalAlign=top;align=center;html=1;fontSize=12;fontStyle=0;aspect=fixed;shape=mxgraph.aws4.resourceIcon;resIcon=mxgraph.aws4.eventbridge;" vertex="1" parent="1">
          <mxGeometry x="325.5" y="1046" width="78" height="78" as="geometry" />
        </mxCell>
        <mxCell id="kOvkSLo-NlAXBfO6VZ-2-32" value="List of destinations, easy to add (Parameter Store)" style="text;whiteSpace=wrap;html=1;" vertex="1" parent="1">
          <mxGeometry x="985.5" y="680" width="379.5" height="30" as="geometry" />
        </mxCell>
        <mxCell id="kOvkSLo-NlAXBfO6VZ-2-33" value="Save Auth info in a AWS Secret Manager" style="text;whiteSpace=wrap;html=1;" vertex="1" parent="1">
          <mxGeometry x="985" y="710" width="310" height="30" as="geometry" />
        </mxCell>
        <mxCell id="kOvkSLo-NlAXBfO6VZ-2-34" value="Event bridge to schedule the daily routine" style="text;whiteSpace=wrap;html=1;" vertex="1" parent="1">
          <mxGeometry x="985" y="650" width="310" height="30" as="geometry" />
        </mxCell>
        <mxCell id="kOvkSLo-NlAXBfO6VZ-2-36" value="Lambda to host the script" style="text;whiteSpace=wrap;html=1;" vertex="1" parent="1">
          <mxGeometry x="985.5" y="740" width="310" height="30" as="geometry" />
        </mxCell>
        <mxCell id="kOvkSLo-NlAXBfO6VZ-2-37" value="Lambda for AI Prompt Agent (Reusable)" style="text;whiteSpace=wrap;html=1;" vertex="1" parent="1">
          <mxGeometry x="985.5" y="775" width="310" height="30" as="geometry" />
        </mxCell>
        <mxCell id="kOvkSLo-NlAXBfO6VZ-2-38" value="Escalable ( creat a new email instance, everytime the email dest. limit gets to the max&amp;nbsp; allowed.)" style="text;whiteSpace=wrap;html=1;" vertex="1" parent="1">
          <mxGeometry x="985" y="805" width="310" height="30" as="geometry" />
        </mxCell>
        <mxCell id="kOvkSLo-NlAXBfO6VZ-2-39" value="Logs managment" style="text;whiteSpace=wrap;html=1;" vertex="1" parent="1">
          <mxGeometry x="985" y="853" width="310" height="30" as="geometry" />
        </mxCell>
        <mxCell id="kOvkSLo-NlAXBfO6VZ-2-71" style="edgeStyle=orthogonalEdgeStyle;rounded=0;orthogonalLoop=1;jettySize=auto;html=1;exitX=0.5;exitY=1;exitDx=0;exitDy=0;exitPerimeter=0;entryX=0.5;entryY=0;entryDx=0;entryDy=0;" edge="1" parent="1" source="kOvkSLo-NlAXBfO6VZ-2-40" target="kOvkSLo-NlAXBfO6VZ-2-58">
          <mxGeometry relative="1" as="geometry" />
        </mxCell>
        <mxCell id="kOvkSLo-NlAXBfO6VZ-2-40" value="processing" style="outlineConnect=0;dashed=0;verticalLabelPosition=bottom;verticalAlign=top;align=center;html=1;shape=mxgraph.aws3.lambda_function;fillColor=#F58534;gradientColor=none;" vertex="1" parent="1">
          <mxGeometry x="495" y="1050" width="70" height="72" as="geometry" />
        </mxCell>
        <mxCell id="kOvkSLo-NlAXBfO6VZ-2-41" style="edgeStyle=orthogonalEdgeStyle;rounded=0;orthogonalLoop=1;jettySize=auto;html=1;exitX=1;exitY=0.5;exitDx=0;exitDy=0;exitPerimeter=0;entryX=0;entryY=0.5;entryDx=0;entryDy=0;entryPerimeter=0;" edge="1" parent="1" source="kOvkSLo-NlAXBfO6VZ-2-26" target="kOvkSLo-NlAXBfO6VZ-2-40">
          <mxGeometry relative="1" as="geometry" />
        </mxCell>
        <mxCell id="kOvkSLo-NlAXBfO6VZ-2-44" value="auth" style="sketch=0;points=[[0,0,0],[0.25,0,0],[0.5,0,0],[0.75,0,0],[1,0,0],[0,1,0],[0.25,1,0],[0.5,1,0],[0.75,1,0],[1,1,0],[0,0.25,0],[0,0.5,0],[0,0.75,0],[1,0.25,0],[1,0.5,0],[1,0.75,0]];outlineConnect=0;fontColor=#232F3E;fillColor=#DD344C;strokeColor=#ffffff;dashed=0;verticalLabelPosition=bottom;verticalAlign=top;align=center;html=1;fontSize=12;fontStyle=0;aspect=fixed;shape=mxgraph.aws4.resourceIcon;resIcon=mxgraph.aws4.secrets_manager;" vertex="1" parent="1">
          <mxGeometry x="707" y="740" width="78" height="78" as="geometry" />
        </mxCell>
        <mxCell id="kOvkSLo-NlAXBfO6VZ-2-45" value="destination list" style="outlineConnect=0;dashed=0;verticalLabelPosition=bottom;verticalAlign=top;align=center;html=1;shape=mxgraph.aws3.parameter_store;fillColor=#759C3E;gradientColor=none;" vertex="1" parent="1">
          <mxGeometry x="717.5" y="890" width="75" height="102" as="geometry" />
        </mxCell>
        <mxCell id="kOvkSLo-NlAXBfO6VZ-2-46" value="prompt" style="sketch=0;outlineConnect=0;fontColor=#232F3E;gradientColor=none;fillColor=#ED7100;strokeColor=none;dashed=0;verticalLabelPosition=bottom;verticalAlign=top;align=center;html=1;fontSize=12;fontStyle=0;aspect=fixed;pointerEvents=1;shape=mxgraph.aws4.lambda_function;" vertex="1" parent="1">
          <mxGeometry x="725.54" y="1191" width="70" height="70" as="geometry" />
        </mxCell>
        <mxCell id="kOvkSLo-NlAXBfO6VZ-2-48" style="edgeStyle=orthogonalEdgeStyle;rounded=0;orthogonalLoop=1;jettySize=auto;html=1;exitX=1;exitY=0.5;exitDx=0;exitDy=0;exitPerimeter=0;entryX=0;entryY=0.5;entryDx=0;entryDy=0;entryPerimeter=0;" edge="1" parent="1" source="kOvkSLo-NlAXBfO6VZ-2-40" target="kOvkSLo-NlAXBfO6VZ-2-44">
          <mxGeometry relative="1" as="geometry" />
        </mxCell>
        <mxCell id="kOvkSLo-NlAXBfO6VZ-2-53" value="" style="shape=image;verticalLabelPosition=bottom;labelBackgroundColor=default;verticalAlign=top;aspect=fixed;imageAspect=0;image=data:image/png,iVBORw0KGgoAAAANSUhEUgAAAbAAAAB1CAMAAAAYwkSrAAAAeFBMVEX///8AAADo6Oj19fWZmZm2trby8vIyMjLZ2dnb29tWVlakpKRFRUX6+vqtra10dHQfHx9MTEySkpJ6enoMDAzm5ubJycnR0dGAgIAsLCzDw8MlJSWKiopZWVm8vLw6OjphYWFpaWkVFRVJSUmVlZWfn583Nzc/Pz8285AFAAASqElEQVR4nO1daZvqLAwdrda1dbfWvXod//8/fMcC7QkESr2z3Hnt+TLPWLrAgSQkAd7eamBw7M4X2TlbzI/bVZ0bG3w/2tvFroXozZOf/qYGViSTacvE6db+6Q9rwKF/ZtjKsZuHP/1xDXQEGxtdOWXdn/6+BhTJzsXXBw7NIPuXcKPs9IbZ5HDXFNr6pz+yQQHQXr0OEDOIUa+NPn6J1vHmcJou0/u5020MyJ9BMCs4WRgctEG37ePZkgy6y/nYSMpvRzRU7b9hWz90myObwXd/8KvjIJv+blVS/auLstakmad9JzpKGgb2MuHdydgy/r7PfXn0waKwYe3mq9UY/d+IVLS4Y4ysDoSbabbvjDqb84VStv2+T35p7EVzz60Fgj2wku5RzyW3IVzrfP3HNnhbicY+WwvEMJDOplXSBjoXX/eZDRQWQsrZzLw1mIezPlsE5mn7r/vOBgIrp8HRzkAY2pVcv5h3uwyXBp+BP3k7jyPuWtAp6WrtXVZgVBDLD8IGn4VImOts6OSYlnQdqpwZC1mw55jLNfh7iDnYjmll9G1cPNz0yvbYfP5HNigxt9gK4QSk4c3rUcr0aGIwXwlhLegO+giDYwtPP6HyIF8//SMbKER9EWXWTI4j+KFm/hGvlQy8NB6PL8JgI9XUjP4MEctprUSOG/c4T4Rhu90Ow8ZksWJd8kJUmIcpf9xs2FEUSbOyZngsasf77H36MT4vu+tkvg3YOcavRIBwV6ui4AB9gDjbHZU/D/mG74/zYcRNuGJxYy2f4nrfa2no7f8nszmaJ3NyMbaCgoxbd0+eBC6MoJSGvCoqzccFM/zkJe8arWyh7On/Ir6m5TC5zIE2lDM6/OBEH8QRxpvyEQrMVsfoMrL9PUNjq8xCV47f7+VaazWaOMq6CDvqTWMSNuRN+W5Kb+wd+U/0Gh7RHxddLVfCwi+Bnke9dEyQHITF5ZXsYiGMHbxE70noLivxqz22ViIZV/D1gcWvNj9Coz4OD4SdsG7x+7n/tuMJWzLmRkj1XgFqSYoZ3Lm6Njf+aRpOvzkfy6zi3d4BrYRt1a+7hzibehMWgwIdbreQM0DsA6HEdpWVybz4av3qWXhq1sYu5G2EFdZjlg8MX8ISNFNyxbWFOPS4lKBy/FbVheaIOPFrzUXd5HjgbC1tISxSabvSBPMjrH3mnoYG41mp060XYYwytOO3WosZVxmr2WEhTD1EeZx8CAvm8CycfIULuDAX4ll2K7ddz1bFjt+5zqnN1sVqdvCEKQVWdFoPwtCUH2oeiD4MlTRv10T843Twc5Pl8/7WXW/j+YLLf/yVKy7mTEVarYutOEtYIDVR6TusJCwBSnpMVyd0JgVhLh9uaaYWN3ZLgoPBxnRV/ULrPjwZ1cxhMztYwqSfcFjWv4IwsghizMo5krS4CCRhjpoM6OqXj8GlD6BwpFOWuZrm38QWPn+/rK4KR5gaYCDXnIRFI9q2ltAYhmMumfjjqMmMPLOVcnZ7oM/5fp9xj/OeN5TzFvXOESZdUph04SJs+97SMeHfttZnHEN7RWJacmb5/i0t5uoB/yQGpP1H5D8WHGEzk2I7YSve9La8TqPB4ZrSeoBXjd1P/CeBIiJ8W8GkdccrZIYwuUiFRCsthF3WxJTvggLd6f5eeR8x/eyGOHXXuNzXK1KyYqIQro9xZz46bj0DaVGyPY7mH5bptobv6+OmbqcT+2wOFIFf6PDxP6Y08eKdIUyOAvI2C2EtTKd/tMEIHVN8HVGVWe3wiCx4cafrUKlYDO31faYwFCyuRrPy89JsXWVThscDbJiQnrtMZ1idireMhUJfZ8VNl+uxIpUBLeFHD0/gf97sYAgTEnFMitkIK3CXA4q4fm2ZA4XSu9j6IDHprfn8EiT88q7eiY94PCDJdLPz3nENx/bc8PHtNsb39uHyo8d2tfnhKXZ2C8jpnD7+DzA0wTYOQ9gS/5GoIGx6Kz9rkJW/W9Lsy9TuqYUxEiGq8hJGZJmumsBQwvjNYC7WR0e3C3fDUt/ohxIWMgr96hCMqICF9r0Zv2gwCRvQegu4CdNWqK9hemQz8VWRHtvJiV6qzl8kQlFJEkJY27RkZWl+kCW28q2UVggJG6y4/bdcDhgUR0KBYGzsxMlTkzBp1NNiLsLOZhdCY9DSJEq9nrmLJMHAY26FHTuVAhQIuyR8S+bXOPNjZC3e0iwlJOxoe4vVYIEyaoaTVdTcJEw2Ni1mJ2zM9p9objxXh+pd3FIx/Oqrh7+JqLzE+I2VbgVMJ5AlBKuAjlkgTFeRJaYWXYn9WpGDwRZummoSJpr6RIvZCEuthnkbLFTexFfNYjLext2s/tjeAIiweaToN12RNuiM8e5YALRDv6psDoufCQRDYSu9Ye9ihqZJmGhHLSvXNnF2TWcwqHJgCqq1YqlxhUyGvXY6xfmL7Jf+hGmviKtvKPuYH2G8WMdqlnIG1QFjdvwlYa7pJLXLGBM/kJaHEXlEI+LdKykbG/ld/FSDMJJCoblOLofFfj7UXOrlePAkjM1KxwYqGxIZmZo3mYSJWU2PFvt7wlo7c0aipon678R94nhDCWxlqTE4wnrnOEnW+6uublArEW7SkRh9YX9ONh0s/KwmYdf5ut9PFtW5oSEUOcPv6PU2dYlJmLCQlrTY84RB25gmfiYu6EMMBZyncxAbR4hfk7Bz4dsY6IlK5dScCMQ59DGaDaYqrhNWyH4teYxZvohvQlMA00HNkWkSxqbHPE/YBs0e3Ysv365rsQxu8czUwMZJsB4lSG/VprhFe0Y4+DRrBCW1MiM0wpAX6q0xPxlG0pIIHzQ7DCePSdiWK/k8YQvqOtJsvgU2cQH0c3gmQ6HAEu2sEWaY1nQEqOp2jOcAoO8vpaFCCaNOaqITDKsL76RTG9QIhoCxejqovS4Ig1hyHcKIid8jJpkMK2uK6gnC0IUnTDKNMNPYJO0ptVgAHg5mPgH1kN9FCEs1LY3XDG2Ecp9+HHmmfptJmJzTUGqlfiw3YK5F2Md0sHRq3onZJ+SCtqVABh/lKRLRUcsRxtjVxNEq5wLgLU8Z87RdCkzpHCeNq09KcRDrHa8NJoeuqVBc60Qzzl/hSqV6pejASqnWJOwtGhWSmUgaLpZDOp/nGjJT9RDC2IAaxjJkTWDUsT0lK68LPpGwVJe6+ALdoWMzOR5As+OsXWMIkxYU4QKca8LTW5cwkIukJeR65xFzJ19RC5Ad0+iwfCeKXjEEoW+z8z+wO0S3QMLOeukAzAfd2YH5Q/p9IcoLTZYzhCVcS0EbLh8doj5hRRMSciIhl6jVi0a3XyIUuvcvbXwb35QC2JPzLwB3+6XLAewnIeOQMHNMYm4fvYK2s2nyO3osl9Mhpo5L2sW2YIfNBk8RJuNWtF4Z06IoSmyOUwoUMHLOj4TZLBcokjeo5uVwQih5JMycHIMppBGWOe/D79AELUeYlH+6lYQxh4Xo0vUIkwKHEib6LLVESDjMK5kCtZ5U4UiYzR8JnTB3aHHrEmwQQ1+POFOAhKWEYTiRi/ehsKZmB0eYNGCMaHAA7lyhej6BMDE2aByTZMP6KDHirZfVAMKsKxqzskxuktfwP0oGniQMO//hz1xHB+1Eeieb+Stnbqb66GvLfz6BMNGptbQNHDBs3FUD8SeZ8bCdTazOtTIejvryu0SLwC81CGOWhNlBnssSptySjOjvkuzoTyBMiOulI8JRvSglwhmVkvlAmDWL56aV+S7C6ohezSjhV6+oEctEsUJ0NDkJEwK0ijBhYGhNSlb9OtaPSrBTLh+RCDPbfKO6OiLxbwibGE9zgQgIy/ow+aYpJ45WoBGH9sxCSWwVYcK0TrUmzfCDqzaJC0jGjPoiH6MDJHxuW9bp+cIYfYowcxW6GyhjLISpnzn/DE2LyvjeW+zY7GclXrX30K5eEXTG0Dafl2iTqlAkdzVB80+vYyfuf2ElkhwjD9zhXtsaZzWl3/GNhcKeiSUDo1WEZflvhn1DwoU9/SoBTXEqhiMSZpl9G3m2MP8xExdYPENYYFkSZgc82bqLQGFA8d5XXOhzGVEtM0BbsoIwOZk2JvtU/TtWuWjbv5RCHAmzWB2GczaAma7fLj3PEFbP5NCax75PRyFobLmgQMs7TO7aNNBUQZjs02YonIbYz1bDQ7MTRvwF1oVMVIlo7aziFgPPEGY9QNSO8mbHTjilarAs9zrC0FZe/GikHbhYQZgcSeYI0BZ+HSyGnqYOYNEsIYw1Z5nZHohXVn1HJcQPTxBmLC31QKmEXXtNla9bjizbn8O7N48m3YJMEWOkgjARD5sxj8/oJ7MrMFd6Z4XQDR16TNoSkbrSn4JOMWaIrYYFZkK5P0EYzotmEztQsZSf7yAswvSdE79IGg8YaHVwJdE48ZmHSbXPZdqEeuKzscbZ3JMPjQtNVhpqkF5XIxB7gKkK4KrcxKc+YRG6HlxeHAxxlh5VB2Ga6/rA24uJsZY/R1dJHDdhsgXYR5u6+RSXsjnszozrZNGiPgkeU6FK03sLpokk1hlgIsj1CcM3nNkmVcigZOFRdRCGRm+ODd8f8JAciXzEeBAmX3HgP5jbFyydxN3uaH9g1x0Q3k2vBRzjrq+2LtuamNzUoM3gSu9pHYZro9zrPEj6gWr7yu33elADy/F6gZaMLpezeBAmn23bk6JiUYIOKsI4N9MhTlbt/nahn0QNZjM1dsodYlYj0keUFVCbMCK3LPWWIOveVNM7CBMaIgtGMIKuvImP+nusmr+aMGmT2efFtXxuGu0Wv+CUcZSTIKlmx1z33fX2uL9SMXJWpWsT5sxh04AuAXW/g7As//Gjwdvo+5mY+mYF7QprMSsJU5V1CAbnqbUES70r1XDkEqpD9+Ik8bLCBqhNGD6mKjZLtqHqm79phImulkuL5GovFqCZiqdDVBGmEihcbgxvqXgxKu9PmFYhD0dE2cXqEubOw9aBEkY2ZCVhslwX+l2KfokuiPY76eUVhKlFYK4Nbt98Q1TMvivehFW4xRhY1of5EIaTK35jDAT2nZ1op0qRqMJLZKvkYjP6PoQOl5pP3E1YX/WAqvjkwLrcuASXRoArMF0BXkaRVIwxFOE1CcOJuc+BXGgdiW5S6Zo6FDqJHGSU74dIps1GZrOTsKIXe6xOYeYNBBk7jcMA5sC6s+mS7eZthz89JcK3JmEo4X3O48KZjYiYOggTbjrMskpwrjpK/uDmY6ZgcxAGpxB4fPVb1LEvKjcdIBJkF4Fowd/MHYKQv9G69fqejot6hGFmqVc6GPFP5xV1ECYFAzIRxbxwGXMzKRthcVgujss8dzgMbqZf44HpxBry1jZW2TK7qdu4fmC14Xy0C30w1yMMtaPFW6ABRUOunapdU1RmcJuc73jXsGhik7BZKZjP/ocURf2N3uTpIXYYLPpOOFGyQC/aclx1cEs7PtDueZ+bsndw6SnszCGTpepimju/JmlZ2m/D2+2uuKOXZ+K1yx92WqhSZgfqQsvQBxtLkkDLQliJuvtRDrad7Hrqpen7/bCJE3eIUSfsUaOkuxmePm6f7f02+/q4YXF9T9PedXJb8/yGJcyLQXkx0Ap7nmJCbom0H/RxkuWVfTcejVnbj7RtDsUBwKBaI02s+Z3A+CwYwv7vkGOEcUQUPpMLP5cAgxKGLVmQ1Zp57efwPF6QMKnfuAm5TOmwhNEhDHyBtgpBh1j8yJ+IFyRMeUZYZ/pqv7DsXrcFXsYoMEtHde/29ftfvyJh0rAfV5csgbvvTan5KKNfaVa17eOn4BUJU8E2f+uAWP26+Sgmo/qOg1+FlyRM+ZZ9N7xFT7B5+KWw6r/Y1ii/5RUJU0OMO9LeRB/M9qlpPootoy/fdXrDaxKmvMvVK0iqD7kXswQfl+en4DUJKyLa9ypJhn5lPvFU+Hm+7eyGFyWsSHGwnP4rsdbOwmHgecTbp+FVCQsL98QfqyLDY3u5o41yiMhCrbO2/wqvStjbqpgHvx9ZTRaSRKCK5cTfZNO/vTBhb4PS13sfGaMsnOM+jVZN58jJ/iK8LmFvbQwLTWIgpT3CLL6e42xUwerlO1wcEi9MmBEXOU32t9FcDyg63LkqQ6o6T+jz8MqE+Rx/vXcMHiVU/fbv/SQM/nQUbt84sP8VoE+Xg8vdqE5MmL1gu/0g1u5DsK0jrDgU2HYwToOvQnJwJQjeWZMjiAsb0/OMtQafiFWscbbbwNH1Q2Nn+rBTGph2E7LBlyI5jhbD9JJeJ7fjQ8iRlZ2TuIjEBOtRBlea8fXPgKxMfOiqWTY5aAfV2Q6JbfAjqFzu8dvOfv3fg6yKMGDGnhv8OLb8cc4fGPMu4wY/jfWZW2Iy+32Hzb8O2l06t74c4kYY/uv4MPo3k/N5so/rnC3e4Hn8B8Tn8JP8b6YgAAAAAElFTkSuQmCC;" vertex="1" parent="1">
          <mxGeometry x="705.15" y="1282" width="110.77" height="30" as="geometry" />
        </mxCell>
        <mxCell id="kOvkSLo-NlAXBfO6VZ-2-77" style="edgeStyle=orthogonalEdgeStyle;rounded=0;orthogonalLoop=1;jettySize=auto;html=1;exitX=0;exitY=0.5;exitDx=0;exitDy=0;exitPerimeter=0;" edge="1" parent="1" source="kOvkSLo-NlAXBfO6VZ-2-57" target="kOvkSLo-NlAXBfO6VZ-2-76">
          <mxGeometry relative="1" as="geometry" />
        </mxCell>
        <mxCell id="kOvkSLo-NlAXBfO6VZ-2-57" value="DLQ" style="sketch=0;points=[[0,0,0],[0.25,0,0],[0.5,0,0],[0.75,0,0],[1,0,0],[0,1,0],[0.25,1,0],[0.5,1,0],[0.75,1,0],[1,1,0],[0,0.25,0],[0,0.5,0],[0,0.75,0],[1,0.25,0],[1,0.5,0],[1,0.75,0]];outlineConnect=0;fontColor=#232F3E;fillColor=#E7157B;strokeColor=#ffffff;dashed=0;verticalLabelPosition=bottom;verticalAlign=top;align=center;html=1;fontSize=12;fontStyle=0;aspect=fixed;shape=mxgraph.aws4.resourceIcon;resIcon=mxgraph.aws4.sqs;" vertex="1" parent="1">
          <mxGeometry x="386.99999999999994" y="1380" width="78" height="78" as="geometry" />
        </mxCell>
        <mxCell id="kOvkSLo-NlAXBfO6VZ-2-58" value="FAIL" style="rhombus;whiteSpace=wrap;html=1;fillColor=#f8cecc;strokeColor=#b85450;" vertex="1" parent="1">
          <mxGeometry x="482.5" y="1280" width="95" height="80" as="geometry" />
        </mxCell>
        <mxCell id="kOvkSLo-NlAXBfO6VZ-2-60" value="" style="sketch=0;outlineConnect=0;fontColor=#232F3E;gradientColor=none;fillColor=#DD344C;strokeColor=none;dashed=0;verticalLabelPosition=bottom;verticalAlign=top;align=center;html=1;fontSize=12;fontStyle=0;aspect=fixed;shape=mxgraph.aws4.email;" vertex="1" parent="1">
          <mxGeometry x="745" y="253.5" width="78" height="69" as="geometry" />
        </mxCell>
        <mxCell id="kOvkSLo-NlAXBfO6VZ-2-61" value="Cloud Watch" style="outlineConnect=0;dashed=0;verticalLabelPosition=bottom;verticalAlign=top;align=center;html=1;shape=mxgraph.aws3.cloudwatch;fillColor=#759C3E;gradientColor=none;" vertex="1" parent="1">
          <mxGeometry x="725" y="1330" width="82.5" height="93" as="geometry" />
        </mxCell>
        <mxCell id="kOvkSLo-NlAXBfO6VZ-2-68" value="news List of Search" style="outlineConnect=0;dashed=0;verticalLabelPosition=bottom;verticalAlign=top;align=center;html=1;shape=mxgraph.aws3.parameter_store;fillColor=#759C3E;gradientColor=none;" vertex="1" parent="1">
          <mxGeometry x="717.5" y="1040" width="75" height="102" as="geometry" />
        </mxCell>
        <mxCell id="kOvkSLo-NlAXBfO6VZ-2-69" value="News" style="html=1;whiteSpace=wrap;strokeColor=none;fillColor=#0079D6;labelPosition=center;verticalLabelPosition=middle;verticalAlign=top;align=center;fontSize=12;outlineConnect=0;spacingTop=-6;fontColor=#FFFFFF;sketch=0;shape=mxgraph.sitemap.news;" vertex="1" parent="1">
          <mxGeometry x="695.15" y="1065" width="40" height="40" as="geometry" />
        </mxCell>
        <mxCell id="kOvkSLo-NlAXBfO6VZ-2-70" value="" style="outlineConnect=0;dashed=0;verticalLabelPosition=bottom;verticalAlign=top;align=center;html=1;shape=mxgraph.aws3.email_notification;fillColor=#D9A741;gradientColor=none;" vertex="1" parent="1">
          <mxGeometry x="665" y="896" width="60" height="44" as="geometry" />
        </mxCell>
        <mxCell id="kOvkSLo-NlAXBfO6VZ-2-75" style="edgeStyle=orthogonalEdgeStyle;rounded=0;orthogonalLoop=1;jettySize=auto;html=1;exitX=0.5;exitY=1;exitDx=0;exitDy=0;entryX=1;entryY=0.5;entryDx=0;entryDy=0;entryPerimeter=0;" edge="1" parent="1" source="kOvkSLo-NlAXBfO6VZ-2-58" target="kOvkSLo-NlAXBfO6VZ-2-57">
          <mxGeometry relative="1" as="geometry" />
        </mxCell>
        <mxCell id="kOvkSLo-NlAXBfO6VZ-2-76" value="" style="sketch=0;outlineConnect=0;fontColor=#232F3E;gradientColor=none;fillColor=#7AA116;strokeColor=none;dashed=0;verticalLabelPosition=bottom;verticalAlign=top;align=center;html=1;fontSize=12;fontStyle=0;aspect=fixed;pointerEvents=1;shape=mxgraph.aws4.lambda_function;" vertex="1" parent="1">
          <mxGeometry x="300" y="1280" width="78" height="78" as="geometry" />
        </mxCell>
        <mxCell id="kOvkSLo-NlAXBfO6VZ-2-78" style="edgeStyle=orthogonalEdgeStyle;rounded=0;orthogonalLoop=1;jettySize=auto;html=1;entryX=0;entryY=0.5;entryDx=0;entryDy=0;entryPerimeter=0;" edge="1" parent="1" source="kOvkSLo-NlAXBfO6VZ-2-76" target="kOvkSLo-NlAXBfO6VZ-2-40">
          <mxGeometry relative="1" as="geometry">
            <Array as="points">
              <mxPoint x="455" y="1319" />
              <mxPoint x="455" y="1086" />
            </Array>
          </mxGeometry>
        </mxCell>
        <mxCell id="kOvkSLo-NlAXBfO6VZ-2-79" value="DLQ (sqs) + Lambda for retry" style="text;whiteSpace=wrap;html=1;" vertex="1" parent="1">
          <mxGeometry x="985" y="883" width="310" height="30" as="geometry" />
        </mxCell>
        <mxCell id="kOvkSLo-NlAXBfO6VZ-2-86" style="edgeStyle=orthogonalEdgeStyle;rounded=0;orthogonalLoop=1;jettySize=auto;html=1;exitX=1;exitY=0.5;exitDx=0;exitDy=0;" edge="1" parent="1" source="kOvkSLo-NlAXBfO6VZ-2-84" target="kOvkSLo-NlAXBfO6VZ-2-60">
          <mxGeometry relative="1" as="geometry" />
        </mxCell>
        <mxCell id="kOvkSLo-NlAXBfO6VZ-2-84" value="" style="rounded=0;whiteSpace=wrap;html=1;fillColor=none;" vertex="1" parent="1">
          <mxGeometry x="505" y="193" width="140" height="190" as="geometry" />
        </mxCell>
        <mxCell id="kOvkSLo-NlAXBfO6VZ-2-82" value="" style="shape=image;verticalLabelPosition=bottom;labelBackgroundColor=default;verticalAlign=top;aspect=fixed;imageAspect=0;image=data:image/jpeg,/9j/4AAQSkZJRgABAQAAAQABAAD/2wCEAAkGBxIREBEQEBETERUVEQ8QFhAWFRUPFRAQFhUWFxURFRUYHSggGBolGxUVITEhJSkrLi4uGB8zODMsOCgtLisBCgoKDg0OGxAQGi8fICUtLS0tLS0tLS0tLSstLi0tLS0tLS0tLS0tLS0tLS0tLS0tLS0tLS0tLS0tLSsrLS0tLf/AABEIAOEA4QMBEQACEQEDEQH/xAAcAAEAAQUBAQAAAAAAAAAAAAAABQECAwQGBwj/xABQEAABAgMCCAkIAw4FBQEAAAABAAIDBBEFIQYSMUFRYXGRExQiUlOBkqHRBxUWMnKxssEjNEIzVGJjc4KToqPC0uHi8CU1Q3SUg7PT4/EX/8QAGwEBAAMBAQEBAAAAAAAAAAAAAAIDBAEFBgf/xAA4EQACAQIEAgcHBAICAwEAAAAAAQIDEQQSIVEFMRMUMkFxkaEiM1JhsdHhFTSB8FPBBkJDcvEj/9oADAMBAAIRAxEAPwD3FAEAQBAEAQBAEAQBAEBoWhbUtL/d5iDCOh72tJ2AmpUlFvkiLklzZAzPlIs1hIEdzyOZCikdTi0A71NUJ7EHWhuaL/KtIjIyYOsQ2fN4UuryOdPEywfKjZ5ymMz2oRPwkrnQTHTwJWSw4s6L6s3DbmpErAv/AOoAoulNdxJVYPvJ6FFa8BzHBwORwIcDsIVZYXoAgCAIAgCAIAgCAIAgCAIAgCAIAgCAIAgLIsVrGlz3BrWgkuJDQ0DKSTkCA8+wi8qcCESyTZxh2ThXVZCB1faf1UGgrRDDt9rQzyrpdnU89tfDKema8JMva3o4R4Bg1cm9w9olaI0ox5IolUlLmyGgSb33sY41vrS49eRWENDch2JGOUNbtd4VSxy5lFgROez9bwSwuWusGLmcw9ZHySwua8WyozfsE7CHdwvQ7cxyk3Gl3VhRIkB1xOI50InbSletRaT5nU7cjtbB8qU1CIbNNbMszuAEKKBpqOS7YQNqplQi+WhdGvJc9T1OwMIJedh8JLxA6lMZh5L4ZOZzcoz35DS4lZZQcXqaYzUloSiiSCAIAgCAIAgCAIAgCAIAgCAIAgCA15+chwIT40VwYxjS9zjmA951Z11Jt2RxtJXZ4PhlhjGtB5F8OADVkCuWmR8SnrOz0yDNnJ3U6ah4mKdRz8COs+xXxAHO5DdfrOGofMq2xU2dJIYPUbjw5eJEHSYjonfSg6kzRXNi0n3Fz3gZTTVn3KRExOmW6yljlyzjY0Fdyi440NBXLC5e2O056bblyzO3LokFrxRwDhrFVwkRM7YIN8I4p5pvB2HKEFyLkJ2NKRxFhOMKKw7xna4faabrv5KLSkrMkm07o98wPwjZaEsIzRivBxIkPLiRAM2lpyg6DpBWCpDI7G6nPOrk4oEwgCAIAgCAIAgCAIAgCAIAgCAIDzHy1Wm4Ml5VpoHl8Z+sMoGNOkVLjtaFpw8ebM2IfJHBYO2eIhMR4qGkADMXZanZdvWtGVnoGCdmtjzAEQVaxpiFp+1QgBp1VNepV1puMdCyjBSlqelAUuF2amheebzh/KRZDODbNNAa8Pax5F2O05HHSQQBXQdQWvC1HfKzJiaatmR59iraYhiodKYqAYqAq0kZDRcOm3Aj1uOXTpUWiSZoYQyYdD4QDlM72Zx1Zd6iSN3yS2mYNoNhV5Mwx0MjNjsBex3VR4/PVNeN432LqMrStue4rEbAgCAIAgCAIAgCAIAgCAIAgCAIDx7y1fW5f/bn4yteH5My4jmiHwWH0B/KO+Fq0ozM6PB+1hKzYiOriObwb6XkNJBxgM9CB1VUatPPCyJU55J3Z6hLzcOI3HY9rm5cYEEb15zi07M9BSTV0cLh9b0OK1stBcHgOD3vF7aitGA58tTsGtbMPSa9pmTEVU/ZRxVFqMhSiHRRAUogGKuArDHKG0e9GdRs2kPoYv5OJ8JVZMhMBT/iUn+WHuKjV7DLKfbR9ELzzcEAQBAEAQBAEAQBAEAQBAEAQBAeO+Wr63L/AO3P/ccteH5My4jmiLwUH0B/KO9zVoM5JRZbGNaqSZFoxmR1jcmY5lHE9fcmYZRxPX3JmO5SnE9fcmYZRxPX3LmYZTXfDoSFK5wtxUBdDbeNo964zqM9pj6CN+SifCVAkQOAv+ZSf5dvuKjV7DJ0+2j6IXnm8IAgCAIAgCAIAgCAIAgMceM1jXPe5rGtBc57iGtaBlJJuARK4vY4e1vKpJwnFsFkSZIrymgQ4dfadedobRXxw8nz0KHXiuWpDnywH7wH/I/9Sn1b5+hDrD29fwU//YXfeA/5J/8ACnVlv6fkdYe3r+DkMM8JzaMaHFMHgcSHweLj8LXlF1a4raZcitp08itcrnPO72Naybc4CGWcHj8ourjYuUAUpQ6FYVm56VnoP2n9KAelf4j9p/SgHpX+J/af0oB6Vfif2n9KAelX4n9p/SgJyzpnhYTIlMXGrya1pQkZepcBhjt5R2qSIssxV0FWC8bQuApa8wOCiNbfyHgn803LiRJshcBf8yk/y7fcVCr2GTp9tH0QvPN4QBAEAQBAEAQBAEAQFr3hoLnEAAEkm4ADKScyA8Hw8wwfPxSxhLZZjuQzJwpH+q8e4HINdVupU8i+ZiqVM7+RHWZg5EjND3EQ2m8EirnDSG6NqtKiT9EWdK7shAPRFnSv7IQD0SZ0ruyEBT0SZ0ruyFy50eiTOld2QlwPRJnSu7IS4KeiTOld2QlwPRJvSu7I8UuCnok3pXdkeKXBN2fJ8FDbDBxsWt9KVqSfmuAwR28o7VJEWYI0VrPWNNWc9Sklc43Yjos6XOAbyRUbTepZbEM1zLOfc4nsP9xUWTREYLzXBTkvFpjYkQOxa0rcbqrJjKvRUJzteyuaKEc1WK+Z636cu6BvbP8ACvk/11/B6/g9rqi3Hpy7oG9s/wAKfrr+D1/A6otyvpy7oG9s/wAKfrr+D1/Bzqi3NmVw4YTSJBczW1widZBAV1PjlN9uLXhr9iMsI+5nSSM9DjNx4Tw8asoOgjKDtXr0q1OrHNB3RmlBxdmjYVpEIAgCAIAgOB8r1uGDKtlWGj5gkO1QG0x+0S1usFyvoQvK+xRXlZW3PMcGLMEaLVwqxlHEZnO+y3ZcT1a1sMh3EV9EWoehgMwdAXbEblOHOgJY7ccYOgJYXHGDoC5YXMT59oyuaOtdynMxhda7NI3OXejY6RFvnpn9gp0bOdIihtpmg7k6NnekRabdbzSdw+adGznSIxPt45oY6yu9GOkNCPaMRxJri1zC7vyqSikQcmzUJUiJWH6w2j3rjOokJz7m/wBh/uKrZaiAsf7vC9sLz+J/tKn/AKs1YX30fE9AsqVEaMyG4kBxIqMoo0nPsX59RgpzUWfRTdlc6b0RhdJE/V8Fv6lDdlHTMeiMLpIn6vgnUobsdMzTncE3AEwn4/4Dhik7Dk9yqngtLxZKNbchpGciy0XGZVrmmjmnIRnY4KihXqYepmjo9vuWThGasz0yyrQbMQmxWZ7i3O1wytP96F9lh68a9NTj/wDDy5wcJWZuK8gEAQBAEB8/+US1eM2jHcDVsM8XZ7MOodveXnYQt9KOWCMNWWaTJ3BmS4KWZUcp/wBI787IOzRTIG1HNXbLlJEWYqIcMExMsZ6xv5ovO5SUWzjaRHRrVcfUAbrN58FNQ3K3PY0osdzvWcTqrduU0kiN2zGgKIChQBcOlEAKAouAFAXQvWbtHvXGdRvzf3N/sP8AcVWy1EBY/wB3he2F5/E/2lT/ANWasL76PiekYN/WoO13wOXwWE96j6Cp2Wd880FV61RuMboyx1Zj4U6lm6eRPKi9j6q6nVUtO8i42Oewvs0OZxho5TaB/wCEzIDtHu2LPjKN451zRZRnrY1MB7Q4OOYRPJii7VEaKg9YqNyt4NiHCr0b5S+v9/0cxULxzbHoC+oPPCAIAgNG3Z/i8rMR+jgxYgGlzWkgdZoFKKu0iMnZNnzjZssYsaHDJJx3tDjnIrVxrppUr0Tzz1B9wOpROkfGiNaMZxoNKsSuQbsQ05ajnXM5I0/aPgrYwtzKnO/IjipkAgKFAFw6UQFCgC4dKIAUBRcAKA2JOFU4xyDvKjJk4outePiwiM7uSOvL3KDJojLAgl0wzQ2rzsAoO8heRxqsqeDn89F/P4ubcDByrL5anpOCUHGmmnmNe7uxf3l8ZgY3q32PcrO0TuI2RenX7JmjzMCx2LSoXVo7o4ZosIPa5rsjmlp2EUW+ykvEqvZnmoLoMWv2ocT9ZjvELwYt0qt+9P6G12lHxPWoUQOa1wyOAcNhFQvu4yUkmjyGrOxeunAgCA5Hyqxyyy44Fxe6AzqMVpI3Aq2gvbRVWfsM8mwKhY02DzYcR/ub+8trMaOytacbCZfeSbm6fALsIuTOTkoo5SamXRDVx2DMNi0pJcjK23zMKkcC4dCAogM8OVcct23wUXIkomZsm3PU9yjmJZUXcWZo7z4rl2MqHFmaO8+KXYsinFWaO8+KZmdsgZVmjvPil2LIpxVmjvPiuXYsgJZnN7yl2LITEdsNtXGgzDOdQCiSRzk7NGK7GOwN0DxUSaR09hWfwUOrhy3UJ/BGZv8AelfCcax6xNbLB+zHl833v7fk9/BYfooXlzf9sekYHyGJCMVwviUpqhjJvvO5dwNHLDM+/wChKtK7sTUY5lOu7uxGJjoqbExRLAzQsi10dYlUuZweFEDEmomh2K8dYv7wV5GNjlqv5mqk7xO4wUj48nBOhpZ2CWjuAX1PDqmfDQfyt5aHn11aoyWW0qCAIDh/LCf8OH+4g+5yuodspr9k8wwPmBDjRHUqeBc0bS9mXct2W5jbsSNpxC6jnGpJKvgrGebuaBUyBRAFw6Va0k0CA3oEuG3m86dGxVt3LErGKctBkO4mp5oy9ehRbsSSuRMa2oh9UBo7R3nwUcxLKYPOcbnnc3wXLs7lRTznG553N8EuxlRXznG553N8EuxlRTzlG553N8EuxZDzlF553N8EuLIG0YvPO4eCXFkYWtfEdQYz3Ha4/wDxV1asKUc02kt2ThBydoq7OjsexeDIiRKF+UNyhmvWfcvkOKcb6ZOlQ0j3vvf2Xq/kexhcDkeepz22/J2WDtimO/GcCITTecmOeYPmvKwmFdV5pcvqbKtTKrLmd4aAaMwGTqXtSairmRamArG9XctFFywFEsDJBzrRQ70QkclhxDpFhO0sLey6v7y8/iSWaL+RfQejJjACJWXe3mxTuLW/Oq9fgsr0Gtn9jPi17a8Dp17BlCAIDjfK1CrZcQ82JLu3xA395XUO2U1+weP4PupGOtjh3g/Jb48zDPkTU8OSNquiUyNIqZAogC4dN+Vg4oqcp7hoVbZNI0bXtLE+jYeVndzdQ1qDZYlch5SVfFdisFTlJOQa3FZMVi6WGhnqu31fgaKVGdWWWCOhk8Hobb4hMQ6L2tG68718rif+RVpu1FKK839vT+T1aXDoLtu/ojd82QeiZuXn/q+N/wAj9DT1Sh8KHmuD0TNy5+rY3/Ix1Sj8KHmuD0TNyfq2N/yP0HVKPwoebIPRM3J+rY3/ACP0HVKPwoebIPRM3J+r43/I/QdUo/CiosyD0TOyCj4tjX/5GOqUfhRtykrXkQodfwWN+QWWU61eV5Nyfzuy5RhBWSSR09k4KOJDpjkjoweUfaIydV+xbqHDnzqeRTOv3ROthw2saGtAa0CgAuAGgL1bKK2Rn5sscarNNuTJpWLaKFjoolgKJYFBFAJAy+5cjXjGTiuYcG1c5fDT/ROuL+4sGM1s2X0jf8np5EcfhQz3HwXrcDfsTXzRnxfNHXL3TGEAQEHhxK8LZ04wCp4CI8DS5gx2je0KdN2miFRXgzwGyYmLGhnScXtCnzXormefLkdNMtqw71cuZS+RHFWFZRAZZVlXDVeot6ElzNi0Zrg4ZdnyN9o/3XqVTdi1K5zcpLujRAwZSSS430GdxWPFYmGGpOrPkvV7GilSdSahE7azLPxcWDBaSSaAZ3O0n+7l+fYjEVsZWzS1b5Lb5L+/Nn0VOnCjCy5HcWZgnDaAY54R3NBLWjVdeV6VHhsIq89X6FM67fLQl22PLj/Qhdhp9619WpfCvIq6SW5XzTL9BC7DfBOr0vhXkOkluU80y/QQuw3wXer0vhXkOkluPNMv0ELsN8Fzq9L4V5DpJbjzRL9BC7DfBOr0vhXkOkluVFky/QQuw3wXer0vhXkOklubMOG1oo0Bo0ABo7lZZRWxHmC9QdRLkSSLCVS7vmSRSijYCi7YGOJGaMp6hes9TEUqfN+ROMJM1Ys0TkuHevOrY2c9I6L1L40kuYlc/UmE5tioQGGbr4I1RDvxfAqWK7jlLvJPyfM+ijO0xGjc2v7y9rga/wDyk/n/AKM2LftI6xe2ZAgCAtewEEEVBBBGkHKEB8yz0qZePEgnLCivh1OcscQD10qvSTurnnNW0OqY4OaCMjgD1EK+5QyNcKGmi5WFRaug3JAXE7Aq5E4kZhFE5TGaAXbzT5KqRdE3sFpcBjomdzsUeyP5k7gvj/8AkmIbqQorkld+L0Xp9T2uG07Rc99D0zAeQGK+OReSWN1NHrEbTd1LLwujaLqPv0RpxE9cp07yvQnJrRFCRYq9SQTUBNQWveBlNNpUJ1FBXlK38nVFvkjC6daM5Oz+ayT4hSjybfh+bFioyZidP6G96zy4ptH1JrD/ADLDPHQO9VviU/hRLoFuOPO0Dv8AFc/Uqmy9fuOgiUM67Q3cfFRfEauy9fud6CJaZt+mnUFCWOrPvt/B1UomN0QnKSVROrOfak2TUUuSLFWdCA25YXbV6OFjaF9yio9TkcKo2NMEcxrW9frH39ypxMrzsTprQ67AqXxJRp57nv78UdzQvp+E08mGT3uzBiXeoTy9IoCAIAgPEfK3ZPAz/DAciYYH1zcKwBjxuxD+cVtoSvG2xjrRtK+5F2DM40PEOVne05PDctUWZZLU2JuAa4wFdI+asiyuSNMqRA3ZH1Tt+QUJFkSGwg+6j2G+8qqXMtjyJvBz6u32n+9fCcf/AHj8EfQcP9wvFnrOCraScHY873uW7Axth4/3vI1n7bJJwvVklqRRSijYGGPMNZlN+gZVmr4qlR0k9dlzLIU5S5GjFnXHJyRqy715FbiNWekfZXr5mmNCK56msTpWFtt3ZdYLgCAIAgCAIBVAKoCoFbl1K7sjhuPeGNLjcGtJJ1AXr2ElGNtjNzZ5+8ujRbr3RH3D8JxuHevOSdSdlzbL9Io9XlIAhw2Q25GNawbAKL7qnBQgoLuVjyJO7uZlM4EAQBAc9hzg6J+UdCFBEaeFhONwEQA8knQ4EjrBzKynPJK5XUhmjY8DY6JAimoLHscWuY4UIINHMcFvT70YWu5nQylpw4g9YNPNcabjnVikipxaNvHGkb104UxxpG9Dpz1vn6Uew33lQlzJx5E5g59Xb7T/AHr4Pj/7x+CPoOH+4Xiz1zBf6nB9l3xuXpYH9vDw/wBkK3bZIRCBUk0GlTqSjBOUnZEYpvREZMz5NzLhpznwXgYricp+zS0W/f8Aj6+Bsp0EtZGlVeUaRQrtnsc0FDoSz2GhWmpLPYaCmpLPYaCmpLPYaCmpLPYaCiWew0FEswUSzAXAbEvDNanqW3DUXfNJFVSXciMwqncWGIQN78upgy7zdvV+InaNtyMFd3NPAmQ4SY4QjkwhjbXmoaPeeoLRwfD562d8o/UhiZ2jbc9CX1R5wQBAEAQBAcjhpgJBn/pWHgY9AOEAq2IBkbEbn0BwvGsCitp1XDTuKqlJS17zyq1MB7QlyQ6WfEA+3B+nDtYDeUOtoWpVYPvMzpzXcRfmWa+9Zj9BF/hU80d0Qs9n5MeZpn71mP0EX+FM0d0LPZ+Q8zTX3rMfoIv8KZo7oWez8jpLDgPhwQ2Ix0Nwc6rXtLHCpuqDevhuPtPGO2yPewCtRXiz1bBl4bJQSdD+vluXoYSpGnhYyl/dWV1It1GkYJ2YL3GuQG4f3nXzmPxU61Rp8lyX97zdRpqMdDXWItKtyjaFKHaQfI3y6l5u16F7JlMXG4fSM7TfFczLcWK8ah9IztDxTMtxYcaZz2doJmW4sOMs57e0EzLcWHGWc9vaCXQsOMs57e0F24sV4yznt7QS4sOMM57e0EuLDjDOe3tBLnDSnragwgeUHuzNaQb9ZFwVc6sYklFs5CPGiR4tSMZ7yAGjcGgLH7VWdlq2W6RR6TYFmCWgNh5XHlPOl5y9QuHUvscFhlh6Sh39/ieXVqZ5XJJaysIAgCAIAgCAIAgCAIDzfDP65E2Q/gC+S4v+5fgj0sN7tE7YDqysLUH/ABuUac26cU+4NasrH9Y7V5df3jNMOyixVEirco2hSh2kcfI2p4EwogAqTDiAAXknFNwXsS7LMq5nC8Qi9DE7DvBefklsX3Q4hF6GJ2HeCZJbC6HEIvQxOw7wTJLYXQ4hF6GJ2HeCZJbC6HEIvQxOw7wTJLYXRa+TiNBLob2gZSWOAHWQjhJdwuiyDBc84rGueTka0FxPUEhCU3aKu/kG0tWbPmmY+9436J/gruqYj4JeTIdJDdeY80zH3vG/RP8ABOqYj4JeTHSQ3XmbUpg3NRCKQiwc5/0YHUb+5X0uGYmp/wBbeOn5Iyr04952dgYOMluWTwkSlMelA0Zw0fP3ZF9BguHQw3tc5b/YxVa7npyRNr0SgIAgCAIAgCAIAgKEoDG+OAgNeJPAIDz/AAqiY0092qH8IXyXF/3L8F9D0sN7tE/g/wDVoWx/xuVdHsIlLmXx/WO1ebX94zRDsoxqkkVabxtClF+0jj5G/wAK3SN69bpqfxLzM2WWw4Vukb06an8S8xkew4VvOG9Omp/EvMZHsOFbzhvTpqfxLzGR7DhW84b06an8S8xkewEQaRvXVVg3ZNDK9jSt/wCrRdjfiCVOwzkeZAYIvxZuGdUT4CpcI/dLwf0OYn3bPRWTAK+uPNMoKAqgCAIAgCAIAgCAIChKAwRZiiA0Y84gI+PO60BHxp7WgOctOJjRSdTfcvkuL/un4L6HpYb3aOrwe+rQvz/jcqqPYRKXMumPWK83Ee8Zoh2UY1SSCAIAgCA2JKWMR2KLs5OgLXgsHPFVMkdN3siurVVON2S/meHSlXV01Hgvpf0HDZbXd97/AIt6GDrlS/cRkeUMKI0G8G8HSPFeDXwU8JiIxlqnye/5RshVVSDaNa3vq0XY34gr6nYZCPM5axYmLGadTvcVPhH7pfz9COJ92zroE7rX1x5pIQJxAb8GZqgNgGqAqgCAIAgCAIAUBqTEVARsxGQEZMR0BGzEdARkxMIDRc+pqvleNQaxGbdL7Ho4V3hY67BiOHQA3OxzgRqJLge87lloP2SyXM3JqGa42b3LJiqTUs65FtOWljXqsZaEAQFUAQEtg+8VeM9GnaBXx719H/x6cc1SPfo/4V/pf1MGOTtFk0vqDzyPtYA4mkEn5LxuLKMsl+au/wDRqw11c5vCaYDYBZneQANQIJPcB1rxa0rRNcVqcrKOo6q08Gg5YjNsn9ivFO0LEzLzC+qPOJOXjoCSl4yAk5eMgNwFAVQBAEAQBAWvyICPmEBFzCAi5hARkwgIuYQGk2LiuvyHu1rzuJYR4il7PaXL/aL6FTJLXkyUs6edBfjtvzFuZw0fzXycJuDPRaudjIWhDjCrDfnYbnDaPmtkZqS0K2rGV8Bp1bFTPDU5fLwJqo0YXSpzEHuWaWDkuTuWKqu8sMB2hVPD1V3Es8dynBO5pUegqbDPHcuEB2jvU1hqr7jjqRM0CC5pDg6hGj+a1UMPUpTU1KzW35+xXOakrNXJMWg6mQbV7v6nVtayuY+rxIa1LaZDrjOx38wZevmhebWxF5OUndl8YWVkcfPTjory951AZmjQFhblUkW6JGGCb19bw7B9Xpa9p8/t/B5ternlpyJKXXoFJKS6AlJdAScugJKFkQF6AIAgCAIAUBqTEJARkxBQEbMQEBGTEBARsxLoCNjyyAww3FlxvHeF5WO4XGv7cNJej/u5po4hw0eqNmFEyFpoRnFxHgvmq1CrQlaat/dzdGcZrRkrK2/GZcSIg/CF+8fOq5GvJc9TuVEnBwmYfXhubsIePkrVXXeRym0y3pc/bI2td8gp9LDc5lZebal+lG53gu9JHcWZiiYQQBkc52xpHvooutAZWaUfCcfYh9bjTuHioPELuRLKRk1bEaJcX4o5reSN+XvVUqsmdUURxNFdh8FWr9habvl/fAjOrGHNlWsLti+lwXDqeH9p6y328DBVruenJG7Ly69EoJKXgICSl4CAk5eCgJOXhIDcAQFUAQBAEAQBAUIQGCLL1QGhHk0BHx5LUgI+NI6kBoxpDUgNKLZ+pAaj7OUZRUlaSujqbWqLDLOGtedV4Thp6pZfD7F8cTNfMpwTtC8+pwOX/SafirfcuWLXeimIdCzS4NiVys/5+5YsVTGIdCj+kYr4fVHes09yvBHQrI8FxD5tL+fwReKgXCA7QtdPga/7z8l/foVSxeyMjZNxXo0eG4alqo3fz1/BTKvOXebEKz9S3FJuwZDUgN6DI6kBvwJLUgJCBJoDfgy1EBsgUQFUAQBAEAQBAEAQBAUIQGJ8uCgNeJIgoDViWbqQGrEs3UgNd9makBgdZepAYnWXqQFpsrUgAsrUgLhZWpAZG2XqQGdlmakBsQ7M1IDah2bqQG1DkKIDYZLAIDMGgICqAIAgCAIAgCAIAgCAIAgCAIAgKEIChhjQgLTAboQFvFm6EBTirdCAcVboQFeLN0IC4QG6EBUQxoQFwCAqgCAIAgCAIAgCAIAgCAIAgCAIAgCAIAgCAIAgCAIAgCAIAgCAIAgCAIAgCAIAgCAID//Z;" vertex="1" parent="1">
          <mxGeometry x="464.38" y="302" width="40" height="40" as="geometry" />
        </mxCell>
        <mxCell id="kOvkSLo-NlAXBfO6VZ-2-88" value="&lt;font style=&quot;font-size: 16px;&quot;&gt;NEWS AGENT - V1&lt;/font&gt;" style="swimlane;whiteSpace=wrap;html=1;dashed=1;fillColor=#fff2cc;strokeColor=#d6b656;" vertex="1" parent="1">
          <mxGeometry x="220" y="110" width="690" height="350" as="geometry" />
        </mxCell>
        <mxCell id="kOvkSLo-NlAXBfO6VZ-2-87" value="IMPROVIMENTS:&amp;nbsp;" style="text;whiteSpace=wrap;html=1;" vertex="1" parent="1">
          <mxGeometry x="955" y="610" width="310" height="30" as="geometry" />
        </mxCell>
        <mxCell id="kOvkSLo-NlAXBfO6VZ-2-89" value="&lt;font style=&quot;font-size: 16px;&quot;&gt;NEWS AGENT - V2&lt;/font&gt;" style="swimlane;whiteSpace=wrap;html=1;dashed=1;fillColor=#d5e8d4;strokeColor=#82b366;" vertex="1" parent="1">
          <mxGeometry x="220" y="533" width="1120" height="1047" as="geometry" />
        </mxCell>
      </root>
    </mxGraphModel>
  </diagram>
</mxfile>
